<svg width="36" height="36" viewBox="0 0 36 36" fill="none" xmlns="http://www.w3.org/2000/svg">
    <path d="M13.613 22.0049L22.014 6.8636C22.1295 6.65508 22.245 6.4493 22.3495 6.23391C22.4444 6.03911 22.5241 5.84293 22.5764 5.63029C22.6864 5.18306 22.6561 4.71663 22.4856 4.28998C22.3201 3.86964 22.0205 3.51532 21.6331 3.28165C21.2531 3.05205 20.8059 2.95865 20.3654 3.01688C19.9255 3.07587 19.5226 3.28303 19.205 3.60679C19.0537 3.75769 18.93 3.92918 18.8159 4.11163C18.6894 4.31193 18.5752 4.52045 18.4597 4.72897L17.929 5.68517L17.3969 4.7276C17.2814 4.52045 17.1673 4.31193 17.0408 4.11163C16.9294 3.92965 16.7989 3.75997 16.6517 3.60541C16.3418 3.28521 15.9331 3.07798 15.4912 3.01688C15.0512 2.95897 14.6046 3.05236 14.2249 3.28165C13.8375 3.51532 13.538 3.86964 13.3724 4.28998C13.2025 4.71631 13.1708 5.18504 13.2817 5.63029C13.3339 5.84293 13.4137 6.03911 13.5072 6.23391C13.6116 6.4493 13.7271 6.65508 13.8426 6.8636L15.5586 9.95579L8.87354 22.0035H4.29219C4.06119 22.0035 3.8302 22.0035 3.60058 22.0173C3.39159 22.0296 3.1881 22.0557 2.9846 22.1147C2.55837 22.2381 2.18438 22.4988 1.91489 22.8664C1.64547 23.2364 1.50025 23.682 1.5 24.1393C1.49975 24.5966 1.64449 25.0423 1.91351 25.4126C2.18438 25.7803 2.55699 26.0396 2.9846 26.1644C3.1881 26.2234 3.39159 26.2495 3.60058 26.2618C3.8302 26.2755 4.06119 26.2755 4.29219 26.2755H22.3C22.3547 26.1555 22.4006 26.0317 22.4375 25.9051C23.0081 23.9626 21.5905 22.0035 19.6395 22.0035L13.613 22.0049ZM5.78127 26.9738L4.6923 29.0316C4.57955 29.2456 4.46543 29.4569 4.36368 29.6778C4.26979 29.8766 4.19609 30.0843 4.14369 30.2978C4.03336 30.7549 4.06404 31.2345 4.23169 31.6738C4.39806 32.1101 4.69092 32.4736 5.06629 32.7096C5.44165 32.9455 5.87614 33.0416 6.30512 32.9798C6.73686 32.9195 7.1301 32.7082 7.44084 32.3762C7.58933 32.2185 7.71033 32.0442 7.82308 31.8577C7.94682 31.6519 8.05819 31.4379 8.17094 31.2239L9.75077 28.2387C9.62702 28.0329 8.44868 26.222 5.78127 26.9738ZM34.0861 22.85C33.8209 22.4918 33.4443 22.2313 33.015 22.1092C32.8141 22.0535 32.6074 22.0208 32.3991 22.0118C32.1681 21.998 31.9384 21.998 31.7075 21.998H27.1412L21.1052 11.2769C20.3129 12.1063 19.7963 13.1592 19.6257 14.2923C19.4041 15.7093 19.6686 17.1596 20.3764 18.4079L27.628 31.2938C27.7435 31.4996 27.8576 31.7054 27.9841 31.9029C28.0996 32.0813 28.2233 32.25 28.3732 32.4023C28.6908 32.7206 29.0937 32.9236 29.535 32.9826C29.9764 33.0416 30.4191 32.9497 30.8027 32.7219C31.1885 32.4917 31.4884 32.1419 31.6566 31.726C31.8285 31.3048 31.8573 30.8452 31.7473 30.4035C31.693 30.1976 31.6169 29.998 31.5205 29.8081C31.4173 29.5954 31.3005 29.3924 31.185 29.1866L29.513 26.2152H31.7075C31.9384 26.2152 32.1681 26.2152 32.3991 26.2028C32.6081 26.1905 32.8115 26.1644 33.015 26.1068C33.445 25.9845 33.8221 25.7235 34.0875 25.3646C34.3562 25.0006 34.5008 24.5601 34.5 24.108C34.5008 23.6559 34.3562 23.2154 34.0875 22.8513" fill="currentColor"/>
</svg>
