<svg width="24" height="24" viewBox="0 0 24 24" fill="none" xmlns="http://www.w3.org/2000/svg">
    <path d="M5 5.7C5 5.24913 5.18437 4.81673 5.51256 4.49792C5.84075 4.17911 6.28587 4 6.75 4H13.75C13.982 4.00005 14.2046 4.08963 14.3686 4.24905L18.7436 8.49905C18.9077 8.65842 19 8.87458 19 9.1V19.3C19 19.7509 18.8156 20.1833 18.4874 20.5021C18.1592 20.8209 17.7141 21 17.25 21H6.75C6.28587 21 5.84075 20.8209 5.51256 20.5021C5.18437 20.1833 5 19.7509 5 19.3V5.7ZM16.8878 9.1L13.75 6.0519V9.1H16.8878ZM12 5.7H6.75V19.3H17.25V10.8H12.875C12.6429 10.8 12.4204 10.7104 12.2563 10.551C12.0922 10.3916 12 10.1754 12 9.95V5.7ZM8.5 13.35C8.5 13.1246 8.59219 12.9084 8.75628 12.749C8.92038 12.5896 9.14294 12.5 9.375 12.5H14.625C14.8571 12.5 15.0796 12.5896 15.2437 12.749C15.4078 12.9084 15.5 13.1246 15.5 13.35C15.5 13.5754 15.4078 13.7916 15.2437 13.951C15.0796 14.1104 14.8571 14.2 14.625 14.2H9.375C9.14294 14.2 8.92038 14.1104 8.75628 13.951C8.59219 13.7916 8.5 13.5754 8.5 13.35ZM8.5 16.75C8.5 16.5246 8.59219 16.3084 8.75628 16.149C8.92038 15.9896 9.14294 15.9 9.375 15.9H14.625C14.8571 15.9 15.0796 15.9896 15.2437 16.149C15.4078 16.3084 15.5 16.5246 15.5 16.75C15.5 16.9754 15.4078 17.1916 15.2437 17.351C15.0796 17.5104 14.8571 17.6 14.625 17.6H9.375C9.14294 17.6 8.92038 17.5104 8.75628 17.351C8.59219 17.1916 8.5 16.9754 8.5 16.75Z" fill="currentColor"/>
</svg>
