<svg width="18" height="18" viewBox="0 0 18 18" fill="none" xmlns="http://www.w3.org/2000/svg">
    <path d="M13.6401 3.24189C11.9842 1.58604 9.28771 1.58604 7.63361 3.24189L3.04572 7.82627C3.01584 7.85615 3.00002 7.89658 3.00002 7.93877C3.00002 7.98096 3.01584 8.02139 3.04572 8.05127L3.69435 8.6999C3.724 8.72942 3.76414 8.74599 3.80597 8.74599C3.84781 8.74599 3.88795 8.72942 3.91759 8.6999L8.50549 4.11553C9.07502 3.546 9.83263 3.23311 10.6377 3.23311C11.4428 3.23311 12.2004 3.546 12.7682 4.11553C13.3377 4.68506 13.6506 5.44268 13.6506 6.246C13.6506 7.05107 13.3377 7.80693 12.7682 8.37646L8.0924 13.0505L7.33478 13.8081C6.62638 14.5165 5.47502 14.5165 4.76662 13.8081C4.42384 13.4653 4.23576 13.0101 4.23576 12.5249C4.23576 12.0397 4.42384 11.5845 4.76662 11.2417L9.40549 6.60459C9.52326 6.48857 9.67795 6.42353 9.84318 6.42353H9.84494C10.0102 6.42353 10.1631 6.48857 10.2791 6.60459C10.3969 6.72236 10.4602 6.87705 10.4602 7.04228C10.4602 7.20576 10.3951 7.36045 10.2791 7.47646L6.48752 11.2646C6.45763 11.2944 6.44181 11.3349 6.44181 11.3771C6.44181 11.4192 6.45763 11.4597 6.48752 11.4896L7.13615 12.1382C7.1658 12.1677 7.20593 12.1843 7.24777 12.1843C7.28961 12.1843 7.32974 12.1677 7.35939 12.1382L11.1492 8.34834C11.499 7.99854 11.6906 7.53447 11.6906 7.04053C11.6906 6.54658 11.4973 6.08076 11.1492 5.73271C10.4268 5.01025 9.25256 5.01201 8.53009 5.73271L8.08009 6.18447L3.89299 10.3698C3.6088 10.6523 3.38353 10.9885 3.23025 11.3587C3.07696 11.729 2.9987 12.1259 3.00002 12.5267C3.00002 13.3405 3.31818 14.1052 3.89299 14.68C4.48888 15.2741 5.26935 15.5712 6.04982 15.5712C6.83029 15.5712 7.61076 15.2741 8.2049 14.68L13.6401 9.24834C14.4399 8.44678 14.8828 7.37979 14.8828 6.246C14.8846 5.11045 14.4416 4.04346 13.6401 3.24189Z" fill="currentColor"/>
</svg>
