<svg width="18" height="18" viewBox="0 0 18 18" fill="none" xmlns="http://www.w3.org/2000/svg">
<path fill-rule="evenodd" clip-rule="evenodd" d="M13.4704 11.9482L18 16.4868L16.4909 18L11.9656 13.4657C10.4568 14.6042 8.57369 15.1279 6.69514 14.9314C4.81659 14.7348 3.08205 13.8326 1.84058 12.4064C0.59911 10.9801 -0.057135 9.13555 0.0039062 7.244C0.0649474 5.35245 0.838744 3.55427 2.16958 2.21132C3.50041 0.868372 5.28949 0.0803412 7.17679 0.00581201C9.0641 -0.0687172 10.9095 0.575787 12.3417 1.80962C13.7739 3.04346 14.6865 4.77505 14.8959 6.65592C15.1054 8.53679 14.596 10.4273 13.4704 11.9471V11.9482ZM12.8066 7.48655C12.8066 6.06842 12.2444 4.70836 11.2436 3.70559C10.2428 2.70281 8.88546 2.13946 7.47016 2.13946C6.05485 2.13946 4.6975 2.70281 3.69673 3.70559C2.69595 4.70836 2.13372 6.06842 2.13372 7.48655C2.13372 8.90469 2.69595 10.2647 3.69673 11.2675C4.6975 12.2703 6.05485 12.8336 7.47016 12.8336C8.88546 12.8336 10.2428 12.2703 11.2436 11.2675C12.2444 10.2647 12.8066 8.90469 12.8066 7.48655Z" fill="#767E9F"/>
</svg>
